<?xml version="1.0" encoding="utf-8"?>
<!-- Generator: Adobe Illustrator 25.0.0, SVG Export Plug-In . SVG Version: 6.00 Build 0)  -->
<svg version="1.1" id="Layer_1" xmlns="http://www.w3.org/2000/svg" xmlns:xlink="http://www.w3.org/1999/xlink" x="0px" y="0px"
	 viewBox="0 0 420 220" style="enable-background:new 0 0 420 220;" xml:space="preserve">
<style type="text/css">
	.st0{fill-rule:evenodd;clip-rule:evenodd;}
	.st1{font-family:'Helvetica';}
	.st2{font-size:15px;}
	.st3{fill:none;stroke:#C1C1C1;stroke-width:2;stroke-linecap:square;}
</style>
<g id="Page-1">
	<g id="Group-2" transform="translate(-42.000000, -35.000000)">
		<g id="Group" transform="translate(42.000000, 74.000000)">
			<path id="Shape" class="st0" d="M2.6,47.7h14.6v18.5L15.1,64c-1.1-1.1-2.9-1.1-4,0s-1.1,2.9,0,4l7,7.1c0.5,0.5,1.3,0.9,2,0.9
				s1.5-0.3,2-0.9l7-7.1c1.1-1.1,1.1-2.9,0-4c-1.1-1.1-2.9-1.1-4,0l-2.1,2.2V44.8c0-1.6-1.3-2.8-2.8-2.8H2.8C1.3,42,0,43.3,0,44.8
				C-0.2,46.4,1.1,47.7,2.6,47.7z"/>
			<path id="Shape_1_" class="st0" d="M42.4,75.1c0.5,0.5,1.2,0.9,2,0.9c0.8,0,1.4-0.3,2-0.9l6.8-7.1c1-1.1,1-2.9,0-4
				s-2.8-1.1-3.9,0l-2.1,2.2V44.8c0-1.6-1.2-2.8-2.7-2.8s-2.7,1.3-2.7,2.8v21.3L39.7,64c-1-1.1-2.8-1.1-3.9,0s-1,2.9,0,4L42.4,75.1z
				"/>
			<path id="Shape_2_" class="st0" d="M68.6,75.1c0.5,0.5,1.3,0.9,2,0.9c0.8,0,1.5-0.3,2-0.9l7-7.1c1.1-1.1,1.1-2.9,0-4
				c-1.1-1.1-2.9-1.1-4,0l-2.1,2.2V47.7h14.6c1.6,0,2.8-1.3,2.8-2.8S89.7,42,88.2,42H70.7c-1.6,0-2.8,1.3-2.8,2.8v21.3L65.8,64
				c-1.1-1.1-2.9-1.1-4,0s-1.1,2.9,0,4L68.6,75.1z"/>
			<path id="Shape_3_" class="st0" d="M88.2,73c-1.5,0-2.8,1.2-2.8,2.7v6.9H5.6v-6.9c0-1.5-1.2-2.7-2.8-2.7S0,74.2,0,75.7v9.6
				C0,86.8,1.2,88,2.8,88h85.4c1.5,0,2.8-1.2,2.8-2.7v-9.5C91,74.3,89.8,73,88.2,73z"/>
		</g>
		<g id="noun_spreadsheet_1608852" transform="translate(207.000000, 35.000000)">
			<g id="Group_1_">
				<path id="Shape_4_" class="st0" d="M74.8,59.8L74.8,59.8L59,44.2h0L56.8,42H55H0v76.2V140h77v-21.8V63.7V62L74.8,59.8z
					 M57.2,45.5l16.3,16.1H57.2V45.5z M32.5,135.6l-1.6-2.8c-0.7-1.1-1.1-1.7-1.5-2.5h0c-0.4,0.7-0.7,1.4-1.4,2.5l-1.5,2.7h-1.9
					l3.9-6.3l-3.7-6.2h1.9l1.7,2.9c0.5,0.8,0.8,1.4,1.2,2.1h0.1c0.4-0.7,0.7-1.3,1.1-2.1l1.7-2.9h1.9l-3.8,6.1l3.9,6.4H32.5z
					 M43.2,135.6h-7v-12.5h1.6v11.1h5.4V135.6z M47.6,135.8c-1.2,0-2.5-0.4-3.2-0.8l0.4-1.4c0.7,0.4,1.8,0.8,2.9,0.8
					c1.7,0,2.6-0.9,2.6-2.1c0-1.2-0.7-1.8-2.4-2.5c-2.1-0.7-3.3-1.8-3.3-3.5c0-1.9,1.6-3.4,4.1-3.4c1.3,0,2.2,0.3,2.8,0.6l-0.4,1.3
					c-0.4-0.2-1.3-0.6-2.4-0.6c-1.7,0-2.4,1-2.4,1.9c0,1.2,0.8,1.7,2.5,2.4c2.1,0.8,3.2,1.8,3.2,3.7
					C52.1,134.2,50.6,135.8,47.6,135.8z M74.8,118.2H2.2v-74H55v19.6h19.8V118.2z"/>
				<rect id="Rectangle-path" x="13.8" y="99.1" class="st0" width="10.4" height="6.9"/>
				<rect id="Rectangle-path_1_" x="26.8" y="99.1" class="st0" width="10.4" height="6.9"/>
				<rect id="Rectangle-path_2_" x="39.8" y="99.1" class="st0" width="10.4" height="6.9"/>
				<rect id="Rectangle-path_3_" x="52.9" y="99.1" class="st0" width="10.4" height="6.9"/>
				<rect id="Rectangle-path_4_" x="13.8" y="88.2" class="st0" width="10.4" height="6.9"/>
				<rect id="Rectangle-path_5_" x="26.8" y="88.2" class="st0" width="10.4" height="6.9"/>
				<rect id="Rectangle-path_6_" x="39.8" y="88.2" class="st0" width="10.4" height="6.9"/>
				<rect id="Rectangle-path_7_" x="52.9" y="88.2" class="st0" width="10.4" height="6.9"/>
				<rect id="Rectangle-path_8_" x="13.8" y="77.3" class="st0" width="10.4" height="6.9"/>
				<rect id="Rectangle-path_9_" x="26.8" y="77.3" class="st0" width="10.4" height="6.9"/>
				<rect id="Rectangle-path_10_" x="39.8" y="77.3" class="st0" width="10.4" height="6.9"/>
				<rect id="Rectangle-path_11_" x="52.9" y="77.3" class="st0" width="10.4" height="6.9"/>
				<rect id="Rectangle-path_12_" x="13.8" y="66.4" class="st0" width="10.4" height="6.9"/>
				<rect id="Rectangle-path_13_" x="26.8" y="66.4" class="st0" width="10.4" height="6.9"/>
				<rect id="Rectangle-path_14_" x="39.8" y="66.4" class="st0" width="10.4" height="6.9"/>
				<rect id="Rectangle-path_15_" x="52.9" y="66.4" class="st0" width="10.4" height="6.9"/>
			</g>
		</g>
		<g id="noun_Upload_3365031" transform="translate(358.000000, 57.000000)">
			<g id="Group_2_">
				<path id="Shape_5_" class="st0" d="M76.7,69.9c0,0.2,0,0.4,0,0.6c2.2-0.8,4.6-1.3,7.1-1.3c11.2,0,20.3,9.1,20.3,20.4
					S94.9,110,83.7,110c-0.1,0-0.2,0-0.3,0c-0.1,0-0.1,0-0.2,0v0H52.4V78.6l12.6,12.8c1.1,1.1,2.8,1.1,3.8,0c1.1-1.1,1.1-2.8,0-3.9
					L51.6,70c-1.1-1.1-2.8-1.1-3.8,0L30.6,87.6c-1.1,1.1-1.1,2.8,0,3.9s2.8,1.1,3.8,0L47,78.6V110H24.4h-0.5v0
					C10.7,109.7,0,98.8,0,85.4C0,72,10.7,61.1,23.9,60.8C27.4,49.9,37.6,42,49.6,42c14.9,0,27,12.2,27,27.2
					C76.7,69.4,76.7,69.6,76.7,69.9z"/>
			</g>
		</g>
		<text transform="matrix(1 0 0 1 61.0752 209)" class="st1 st2">Collect</text>
		<text transform="matrix(1 0 0 1 219.3228 209)" class="st1 st2">Record</text>
		<text transform="matrix(1 0 0 1 386.2329 209)" class="st1 st2">Upload</text>
		<path id="Line" class="st3" d="M170,102.5v68.3"/>
		<path id="Line-Copy" class="st3" d="M324,102.5v68.3"/>
	</g>
</g>
</svg>
